<svg viewBox="0 0 28 28" fill="none" xmlns="http://www.w3.org/2000/svg">
    <path fill-rule="evenodd" clip-rule="evenodd" d="M6.28829 11.8125L12.9174 5.18334L13.7424 6.0083L7.11325 12.6374L6.28829 11.8125Z" fill="#E8E9E9"/>
    <path fill-rule="evenodd" clip-rule="evenodd" d="M8.48809 14.0122L15.1172 7.38305L15.9422 8.20801L9.31305 14.8371L8.48809 14.0122Z" fill="#E8E9E9"/>
    <path fill-rule="evenodd" clip-rule="evenodd" d="M13.1629 18.6872L19.792 12.0581L20.617 12.8831L13.9879 19.5122L13.1629 18.6872Z" fill="#E8E9E9"/>
    <path fill-rule="evenodd" clip-rule="evenodd" d="M15.3627 20.8867L21.9918 14.2576L22.8168 15.0825L16.1877 21.7116L15.3627 20.8867Z" fill="#E8E9E9"/>
    <path fill-rule="evenodd" clip-rule="evenodd" d="M15.3627 20.8867C13.0745 23.1749 9.37283 23.1835 7.09477 20.9055C4.81672 18.6274 4.82502 14.9257 7.11325 12.6374L6.28829 11.8125C3.54242 14.5583 3.53246 19.0004 6.26613 21.7341C8.9998 24.4678 13.4418 24.4575 16.1877 21.7116L15.3627 20.8867Z" fill="#E8E9E9"/>
    <path fill-rule="evenodd" clip-rule="evenodd" d="M19.792 12.0581L20.617 12.8831C22.7527 10.7474 22.7604 7.29234 20.6342 5.16615C18.508 3.03996 15.0531 3.04766 12.9174 5.18334L13.7424 6.0083C15.4204 4.33027 18.135 4.32421 19.8055 5.99479C21.4761 7.66536 21.4701 10.3801 19.792 12.0581Z" fill="#E8E9E9"/>
    <path fill-rule="evenodd" clip-rule="evenodd" d="M8.48809 14.0122C6.96261 15.5377 6.95732 18.006 8.47603 19.5247C9.99473 21.0434 12.4624 21.0377 13.9879 19.5122L13.1629 18.6872C12.0951 19.7551 10.3678 19.7591 9.30467 18.6961C8.24157 17.633 8.24521 15.905 9.31305 14.8371L8.48809 14.0122Z" fill="#E8E9E9"/>
</svg>
